<svg width="2112" height="993" xmlns="http://www.w3.org/2000/svg" xmlns:xlink="http://www.w3.org/1999/xlink" xml:space="preserve" overflow="hidden"><defs><clipPath id="clip0"><rect x="3131" y="1441" width="2112" height="993"/></clipPath></defs><g clip-path="url(#clip0)" transform="translate(-3131 -1441)"><rect x="3132" y="1442" width="2109" height="990" fill="#FFFFFF"/><g><path d="M3785.62 1658.5 3785.62 2332.5M4237.64 1658.5 4237.64 2332.5M4690.65 1658.5 4690.65 2332.5M5142.5 1658.5 5142.5 2332.5" stroke="#D9D9D9" stroke-width="3.4375" stroke-linejoin="round" stroke-miterlimit="10" fill="none"/></g><g><path d="M3954.13 2231.07 3333 2231.07 3333 2097.07 3954.13 2097.07ZM3581.12 1895.06 3333 1895.06 3333 1760.06 3581.12 1760.06Z" fill="#00B050"/></g><g><path d="M4433.15 2231.07 3954.13 2231.07 3954.13 2097.07 4433.15 2097.07ZM3776.12 1895.06 3581.12 1895.06 3581.12 1760.06 3776.12 1760.06Z" fill="#92D050"/></g><g><path d="M4628.15 2231.07 4433.15 2231.07 4433.15 2097.07 4628.15 2097.07ZM3865.13 1895.06 3776.12 1895.06 3776.12 1760.06 3865.13 1760.06Z" fill="#FFC000"/></g><g><path d="M4877.16 2231.07 4628.15 2231.07 4628.15 2097.07 4877.16 2097.07ZM4167.14 1895.06 3865.13 1895.06 3865.13 1760.06 4167.14 1760.06Z" fill="#FF0000"/></g><g><path d="M5143.17 2231.07 4877.16 2231.07 4877.16 2097.07 5143.17 2097.07ZM4309.14 1895.06 4167.14 1895.06 4167.14 1760.06 4309.14 1760.06Z" fill="#C00000"/></g><g><path d="M5143.17 1895.06 4309.14 1895.06 4309.14 1760.06 5143.17 1760.06Z" fill="#7F7F7F"/></g><g><path d="M0 0 0.000360892 674" stroke="#D9D9D9" stroke-width="3.4375" stroke-linejoin="round" stroke-miterlimit="10" fill="none" fill-rule="evenodd" transform="matrix(1 0 0 -1 3333.5 2332.5)"/></g><g><text fill="#595959" font-family="Times New Roman,Times New Roman_MSFontService,sans-serif" font-weight="400" font-size="41" transform="matrix(1 0 0 1 3305.51 2394)">0%</text></g><g><text fill="#595959" font-family="Times New Roman,Times New Roman_MSFontService,sans-serif" font-weight="400" font-size="41" transform="matrix(1 0 0 1 3747.69 2394)">25%</text></g><g><text fill="#595959" font-family="Times New Roman,Times New Roman_MSFontService,sans-serif" font-weight="400" font-size="41" transform="matrix(1 0 0 1 4200.18 2394)">50%</text></g><g><text fill="#595959" font-family="Times New Roman,Times New Roman_MSFontService,sans-serif" font-weight="400" font-size="41" transform="matrix(1 0 0 1 4652.68 2394)">75%</text></g><g><text fill="#595959" font-family="Times New Roman,Times New Roman_MSFontService,sans-serif" font-weight="400" font-size="41" transform="matrix(1 0 0 1 5094.86 2394)">100%</text></g><g><text fill="#595959" font-family="Times New Roman,Times New Roman_MSFontService,sans-serif" font-weight="700" font-size="55" transform="matrix(6.12323e-17 -1 1 6.12323e-17 3211.04 2272)">Research</text></g><g><text fill="#595959" font-family="Times New Roman,Times New Roman_MSFontService,sans-serif" font-weight="700" font-size="55" transform="matrix(6.12323e-17 -1 1 6.12323e-17 3274.29 2222)">Only</text></g><g><text fill="#595959" font-family="Times New Roman,Times New Roman_MSFontService,sans-serif" font-weight="700" font-size="55" transform="matrix(6.12323e-17 -1 1 6.12323e-17 3211.04 1987)">Research and</text></g><g><text fill="#595959" font-family="Times New Roman,Times New Roman_MSFontService,sans-serif" font-weight="700" font-size="55" transform="matrix(6.12323e-17 -1 1 6.12323e-17 3274.29 1936)">Teaching</text></g><g><rect x="3167.5" y="1469.5" width="2057" height="157" stroke="#000000" stroke-width="3.4375" stroke-linejoin="round" stroke-miterlimit="10" fill="none"/></g><g><rect x="3222" y="1499" width="21" height="19.9999" fill="#00B050"/></g><g><text fill="#595959" font-family="Times New Roman,Times New Roman_MSFontService,sans-serif" font-weight="700" font-size="41" transform="matrix(1 0 0 1 3251.11 1522)">Direct research activities</text></g><g><rect x="3908" y="1499" width="20" height="19.9999" fill="#92D050"/></g><g><text fill="#595959" font-family="Times New Roman,Times New Roman_MSFontService,sans-serif" font-weight="700" font-size="41" transform="matrix(1 0 0 1 3936.65 1522)">Research adjacent activities</text></g><g><rect x="4593" y="1499" width="21.0005" height="19.9999" fill="#FFC000"/></g><g><text fill="#595959" font-family="Times New Roman,Times New Roman_MSFontService,sans-serif" font-weight="700" font-size="41" transform="matrix(1 0 0 1 4622.18 1522)">Prestige building activities</text></g><g><rect x="3222" y="1577" width="21" height="19.9999" fill="#FF0000"/></g><g><text fill="#595959" font-family="Times New Roman,Times New Roman_MSFontService,sans-serif" font-weight="700" font-size="41" transform="matrix(1 0 0 1 3251.11 1600)">Internal administration</text></g><g><rect x="3908" y="1577" width="20" height="19.9999" fill="#C00000"/></g><g><text fill="#595959" font-family="Times New Roman,Times New Roman_MSFontService,sans-serif" font-weight="700" font-size="41" transform="matrix(1 0 0 1 3936.65 1600)">Research system administration</text></g><g><rect x="4593" y="1577" width="21.0005" height="19.9999" fill="#7F7F7F"/></g><g><text fill="#595959" font-family="Times New Roman,Times New Roman_MSFontService,sans-serif" font-weight="700" font-size="41" transform="matrix(1 0 0 1 4622.18 1600)">Teaching</text></g><rect x="3132.5" y="1442.5" width="2109" height="990" stroke="#D9D9D9" stroke-width="3.4375" stroke-linejoin="round" stroke-miterlimit="10" fill="none"/></g></svg>